<mxfile host="app.diagrams.net" agent="Mozilla/5.0 (Macintosh; Intel Mac OS X 10_15_7) AppleWebKit/537.36 (KHTML, like Gecko) Chrome/135.0.0.0 Safari/537.36" version="27.0.2">
  <diagram name="Page-1" id="Dl6jn5FF9fqG36aDG5Ob">
    <mxGraphModel dx="1072" dy="818" grid="1" gridSize="10" guides="1" tooltips="1" connect="1" arrows="1" fold="1" page="1" pageScale="1" pageWidth="827" pageHeight="1169" math="0" shadow="0">
      <root>
        <mxCell id="0" />
        <mxCell id="1" parent="0" />
        <mxCell id="w4QK7ncXABPOGDVdGbdG-21" value="" style="rounded=0;whiteSpace=wrap;html=1;fillColor=none;strokeWidth=2;strokeColor=default;" vertex="1" parent="1">
          <mxGeometry x="435" y="390" width="150" height="110" as="geometry" />
        </mxCell>
        <mxCell id="w4QK7ncXABPOGDVdGbdG-1" value="User / Student" style="rounded=0;whiteSpace=wrap;html=1;" vertex="1" parent="1">
          <mxGeometry x="10" y="200" width="130" height="40" as="geometry" />
        </mxCell>
        <mxCell id="w4QK7ncXABPOGDVdGbdG-9" value="Authentication Service" style="rounded=0;whiteSpace=wrap;html=1;fillColor=#d5e8d4;strokeColor=#82b366;" vertex="1" parent="1">
          <mxGeometry x="440" y="80" width="130" height="40" as="geometry" />
        </mxCell>
        <mxCell id="w4QK7ncXABPOGDVdGbdG-12" value="Upload Files Service" style="rounded=0;whiteSpace=wrap;html=1;fillColor=#d5e8d4;strokeColor=#82b366;" vertex="1" parent="1">
          <mxGeometry x="440" y="140" width="130" height="40" as="geometry" />
        </mxCell>
        <mxCell id="w4QK7ncXABPOGDVdGbdG-13" value="(Study Service)" style="rounded=0;whiteSpace=wrap;html=1;fillColor=#d5e8d4;strokeColor=#82b366;gradientColor=light-dark(#fff2cc, #ededed);gradientDirection=east;" vertex="1" parent="1">
          <mxGeometry x="440" y="320" width="130" height="40" as="geometry" />
        </mxCell>
        <mxCell id="w4QK7ncXABPOGDVdGbdG-14" value="Course Management Service" style="rounded=0;whiteSpace=wrap;html=1;fillColor=#d5e8d4;strokeColor=#82b366;" vertex="1" parent="1">
          <mxGeometry x="440" y="200" width="130" height="40" as="geometry" />
        </mxCell>
        <mxCell id="w4QK7ncXABPOGDVdGbdG-15" value="" style="rounded=0;whiteSpace=wrap;html=1;" vertex="1" parent="1">
          <mxGeometry x="650" y="40" width="140" height="320" as="geometry" />
        </mxCell>
        <mxCell id="w4QK7ncXABPOGDVdGbdG-17" value="Python" style="rounded=0;whiteSpace=wrap;html=1;fillColor=light-dark(#ffd243, #281d00);strokeColor=#d6b656;gradientColor=light-dark(#3772a0, #ededed);gradientDirection=east;" vertex="1" parent="1">
          <mxGeometry x="445" y="450" width="130" height="40" as="geometry" />
        </mxCell>
        <mxCell id="w4QK7ncXABPOGDVdGbdG-19" value="GenAI Service" style="rounded=0;whiteSpace=wrap;html=1;fillColor=#fff2cc;strokeColor=#d6b656;gradientColor=light-dark(#dae8fc, #ededed);gradientDirection=east;" vertex="1" parent="1">
          <mxGeometry x="440" y="260" width="130" height="40" as="geometry" />
        </mxCell>
        <mxCell id="w4QK7ncXABPOGDVdGbdG-20" value="SpringBoot" style="rounded=0;whiteSpace=wrap;html=1;fillColor=light-dark(#68bd45, #1f2f1e);strokeColor=light-dark(#587845, #446e2c);" vertex="1" parent="1">
          <mxGeometry x="445" y="400" width="130" height="40" as="geometry" />
        </mxCell>
        <mxCell id="w4QK7ncXABPOGDVdGbdG-22" value="React" style="rounded=0;whiteSpace=wrap;html=1;fillColor=light-dark(#60dcfb, #1d293b);strokeColor=light-dark(#46aec8, #5c79a3);" vertex="1" parent="1">
          <mxGeometry x="205" y="420" width="130" height="40" as="geometry" />
        </mxCell>
        <mxCell id="w4QK7ncXABPOGDVdGbdG-23" value="" style="shape=cylinder3;whiteSpace=wrap;html=1;boundedLbl=1;backgroundOutline=1;size=15;" vertex="1" parent="1">
          <mxGeometry x="690" y="405" width="60" height="80" as="geometry" />
        </mxCell>
        <mxCell id="w4QK7ncXABPOGDVdGbdG-27" value="" style="shape=image;verticalLabelPosition=bottom;labelBackgroundColor=default;verticalAlign=top;aspect=fixed;imageAspect=0;image=https://upload.wikimedia.org/wikipedia/commons/thumb/a/a7/React-icon.svg/250px-React-icon.svg.png;" vertex="1" parent="1">
          <mxGeometry x="340.16" y="420" width="44.84" height="40" as="geometry" />
        </mxCell>
        <mxCell id="w4QK7ncXABPOGDVdGbdG-34" style="edgeStyle=orthogonalEdgeStyle;rounded=0;orthogonalLoop=1;jettySize=auto;html=1;exitX=1;exitY=0.5;exitDx=0;exitDy=0;entryX=0;entryY=0.5;entryDx=0;entryDy=0;" edge="1" parent="1" source="w4QK7ncXABPOGDVdGbdG-28" target="w4QK7ncXABPOGDVdGbdG-32">
          <mxGeometry relative="1" as="geometry" />
        </mxCell>
        <mxCell id="w4QK7ncXABPOGDVdGbdG-28" value="Frontend / UI" style="rounded=0;whiteSpace=wrap;html=1;fillColor=light-dark(#a4e8f9, #1d293b);strokeColor=#6c8ebf;" vertex="1" parent="1">
          <mxGeometry x="200" y="200" width="130" height="40" as="geometry" />
        </mxCell>
        <mxCell id="w4QK7ncXABPOGDVdGbdG-29" value="" style="shape=image;verticalLabelPosition=bottom;labelBackgroundColor=default;verticalAlign=top;aspect=fixed;imageAspect=0;image=https://www.embarc.de/img/architektur-portraets/02/spring-boot-logo.png;" vertex="1" parent="1">
          <mxGeometry x="595" y="400" width="43.76" height="39.26" as="geometry" />
        </mxCell>
        <mxCell id="w4QK7ncXABPOGDVdGbdG-31" value="" style="shape=image;verticalLabelPosition=bottom;labelBackgroundColor=default;verticalAlign=top;aspect=fixed;imageAspect=0;image=https://149860134.v2.pressablecdn.com/wp-content/uploads/pythoned.png;" vertex="1" parent="1">
          <mxGeometry x="588.76" y="445" width="50" height="50" as="geometry" />
        </mxCell>
        <mxCell id="w4QK7ncXABPOGDVdGbdG-32" value="" style="rounded=0;whiteSpace=wrap;html=1;" vertex="1" parent="1">
          <mxGeometry x="380" y="80" width="10" height="280" as="geometry" />
        </mxCell>
        <mxCell id="w4QK7ncXABPOGDVdGbdG-33" value="" style="endArrow=classic;html=1;rounded=0;exitX=1;exitY=0.5;exitDx=0;exitDy=0;entryX=0;entryY=0.5;entryDx=0;entryDy=0;" edge="1" parent="1" source="w4QK7ncXABPOGDVdGbdG-1" target="w4QK7ncXABPOGDVdGbdG-28">
          <mxGeometry width="50" height="50" relative="1" as="geometry">
            <mxPoint x="170" y="290" as="sourcePoint" />
            <mxPoint x="220" y="240" as="targetPoint" />
          </mxGeometry>
        </mxCell>
        <mxCell id="w4QK7ncXABPOGDVdGbdG-36" style="edgeStyle=orthogonalEdgeStyle;rounded=0;orthogonalLoop=1;jettySize=auto;html=1;exitX=1.04;exitY=0.071;exitDx=0;exitDy=0;entryX=0;entryY=0.5;entryDx=0;entryDy=0;exitPerimeter=0;" edge="1" parent="1" source="w4QK7ncXABPOGDVdGbdG-32" target="w4QK7ncXABPOGDVdGbdG-9">
          <mxGeometry relative="1" as="geometry">
            <mxPoint x="390" y="99.80000000000001" as="sourcePoint" />
            <mxPoint x="440" y="99.80000000000001" as="targetPoint" />
            <Array as="points">
              <mxPoint x="410" y="100" />
            </Array>
          </mxGeometry>
        </mxCell>
        <mxCell id="w4QK7ncXABPOGDVdGbdG-38" style="edgeStyle=orthogonalEdgeStyle;rounded=0;orthogonalLoop=1;jettySize=auto;html=1;exitX=0.999;exitY=0.287;exitDx=0;exitDy=0;entryX=0;entryY=0.5;entryDx=0;entryDy=0;exitPerimeter=0;" edge="1" parent="1" source="w4QK7ncXABPOGDVdGbdG-32" target="w4QK7ncXABPOGDVdGbdG-12">
          <mxGeometry relative="1" as="geometry">
            <mxPoint x="400" y="110" as="sourcePoint" />
            <mxPoint x="450" y="110" as="targetPoint" />
            <Array as="points">
              <mxPoint x="420" y="160" />
            </Array>
          </mxGeometry>
        </mxCell>
        <mxCell id="w4QK7ncXABPOGDVdGbdG-39" style="edgeStyle=orthogonalEdgeStyle;rounded=0;orthogonalLoop=1;jettySize=auto;html=1;exitX=1;exitY=0.5;exitDx=0;exitDy=0;entryX=0;entryY=0.5;entryDx=0;entryDy=0;" edge="1" parent="1" source="w4QK7ncXABPOGDVdGbdG-32" target="w4QK7ncXABPOGDVdGbdG-14">
          <mxGeometry relative="1" as="geometry">
            <mxPoint x="389" y="219.86" as="sourcePoint" />
            <mxPoint x="439" y="219.86" as="targetPoint" />
            <Array as="points" />
          </mxGeometry>
        </mxCell>
        <mxCell id="w4QK7ncXABPOGDVdGbdG-40" style="edgeStyle=orthogonalEdgeStyle;rounded=0;orthogonalLoop=1;jettySize=auto;html=1;exitX=0.986;exitY=0.715;exitDx=0;exitDy=0;entryX=0;entryY=0.5;entryDx=0;entryDy=0;exitPerimeter=0;" edge="1" parent="1" source="w4QK7ncXABPOGDVdGbdG-32" target="w4QK7ncXABPOGDVdGbdG-19">
          <mxGeometry relative="1" as="geometry">
            <mxPoint x="380" y="279.86" as="sourcePoint" />
            <mxPoint x="430" y="279.86" as="targetPoint" />
            <Array as="points">
              <mxPoint x="410" y="280" />
            </Array>
          </mxGeometry>
        </mxCell>
        <mxCell id="w4QK7ncXABPOGDVdGbdG-41" style="edgeStyle=orthogonalEdgeStyle;rounded=0;orthogonalLoop=1;jettySize=auto;html=1;exitX=0.993;exitY=0.929;exitDx=0;exitDy=0;entryX=0;entryY=0.5;entryDx=0;entryDy=0;exitPerimeter=0;" edge="1" parent="1" source="w4QK7ncXABPOGDVdGbdG-32" target="w4QK7ncXABPOGDVdGbdG-13">
          <mxGeometry relative="1" as="geometry">
            <mxPoint x="389" y="339.90999999999997" as="sourcePoint" />
            <mxPoint x="439" y="339.90999999999997" as="targetPoint" />
            <Array as="points">
              <mxPoint x="410" y="340" />
            </Array>
          </mxGeometry>
        </mxCell>
        <mxCell id="w4QK7ncXABPOGDVdGbdG-42" value="" style="endArrow=classic;html=1;rounded=0;dashed=1;exitX=0.5;exitY=1;exitDx=0;exitDy=0;entryX=0.5;entryY=0;entryDx=0;entryDy=0;" edge="1" parent="1" source="w4QK7ncXABPOGDVdGbdG-9" target="w4QK7ncXABPOGDVdGbdG-12">
          <mxGeometry width="50" height="50" relative="1" as="geometry">
            <mxPoint x="480" y="210" as="sourcePoint" />
            <mxPoint x="530" y="160" as="targetPoint" />
          </mxGeometry>
        </mxCell>
        <mxCell id="w4QK7ncXABPOGDVdGbdG-43" value="" style="endArrow=classic;html=1;rounded=0;dashed=1;exitX=0.5;exitY=1;exitDx=0;exitDy=0;entryX=0.5;entryY=0;entryDx=0;entryDy=0;" edge="1" parent="1" source="w4QK7ncXABPOGDVdGbdG-12" target="w4QK7ncXABPOGDVdGbdG-14">
          <mxGeometry width="50" height="50" relative="1" as="geometry">
            <mxPoint x="515" y="130" as="sourcePoint" />
            <mxPoint x="515" y="150" as="targetPoint" />
          </mxGeometry>
        </mxCell>
        <mxCell id="w4QK7ncXABPOGDVdGbdG-44" value="" style="endArrow=classic;html=1;rounded=0;dashed=1;exitX=0.5;exitY=1;exitDx=0;exitDy=0;entryX=0.5;entryY=0;entryDx=0;entryDy=0;startArrow=classic;startFill=1;" edge="1" parent="1" source="w4QK7ncXABPOGDVdGbdG-14" target="w4QK7ncXABPOGDVdGbdG-19">
          <mxGeometry width="50" height="50" relative="1" as="geometry">
            <mxPoint x="525" y="140" as="sourcePoint" />
            <mxPoint x="525" y="160" as="targetPoint" />
          </mxGeometry>
        </mxCell>
        <mxCell id="w4QK7ncXABPOGDVdGbdG-48" value="" style="endArrow=classic;html=1;rounded=0;dashed=1;entryX=0.5;entryY=0;entryDx=0;entryDy=0;exitX=0.5;exitY=1;exitDx=0;exitDy=0;" edge="1" parent="1" source="w4QK7ncXABPOGDVdGbdG-19" target="w4QK7ncXABPOGDVdGbdG-13">
          <mxGeometry width="50" height="50" relative="1" as="geometry">
            <mxPoint x="640" y="310" as="sourcePoint" />
            <mxPoint x="600" y="330" as="targetPoint" />
          </mxGeometry>
        </mxCell>
        <mxCell id="w4QK7ncXABPOGDVdGbdG-49" style="edgeStyle=orthogonalEdgeStyle;rounded=0;orthogonalLoop=1;jettySize=auto;html=1;exitX=1;exitY=0.5;exitDx=0;exitDy=0;startArrow=classic;startFill=1;" edge="1" parent="1" source="w4QK7ncXABPOGDVdGbdG-9">
          <mxGeometry relative="1" as="geometry">
            <mxPoint x="630" y="130" as="sourcePoint" />
            <mxPoint x="650" y="100" as="targetPoint" />
          </mxGeometry>
        </mxCell>
        <mxCell id="w4QK7ncXABPOGDVdGbdG-50" style="edgeStyle=orthogonalEdgeStyle;rounded=0;orthogonalLoop=1;jettySize=auto;html=1;exitX=1;exitY=0.5;exitDx=0;exitDy=0;entryX=0.003;entryY=0.375;entryDx=0;entryDy=0;startArrow=none;startFill=0;entryPerimeter=0;" edge="1" parent="1" source="w4QK7ncXABPOGDVdGbdG-12" target="w4QK7ncXABPOGDVdGbdG-15">
          <mxGeometry relative="1" as="geometry">
            <mxPoint x="580" y="110" as="sourcePoint" />
            <mxPoint x="660" y="230" as="targetPoint" />
          </mxGeometry>
        </mxCell>
        <mxCell id="w4QK7ncXABPOGDVdGbdG-51" style="edgeStyle=orthogonalEdgeStyle;rounded=0;orthogonalLoop=1;jettySize=auto;html=1;exitX=1;exitY=0.5;exitDx=0;exitDy=0;entryX=0;entryY=0.562;entryDx=0;entryDy=0;startArrow=classic;startFill=1;entryPerimeter=0;" edge="1" parent="1" source="w4QK7ncXABPOGDVdGbdG-14" target="w4QK7ncXABPOGDVdGbdG-15">
          <mxGeometry relative="1" as="geometry">
            <mxPoint x="580" y="170" as="sourcePoint" />
            <mxPoint x="660" y="230" as="targetPoint" />
          </mxGeometry>
        </mxCell>
        <mxCell id="w4QK7ncXABPOGDVdGbdG-52" style="edgeStyle=orthogonalEdgeStyle;rounded=0;orthogonalLoop=1;jettySize=auto;html=1;exitX=-0.003;exitY=0.937;exitDx=0;exitDy=0;entryX=1;entryY=0.5;entryDx=0;entryDy=0;startArrow=classic;startFill=1;exitPerimeter=0;" edge="1" parent="1" source="w4QK7ncXABPOGDVdGbdG-15" target="w4QK7ncXABPOGDVdGbdG-13">
          <mxGeometry relative="1" as="geometry">
            <mxPoint x="580" y="170" as="sourcePoint" />
            <mxPoint x="659" y="170" as="targetPoint" />
            <Array as="points">
              <mxPoint x="610" y="340" />
            </Array>
          </mxGeometry>
        </mxCell>
        <mxCell id="w4QK7ncXABPOGDVdGbdG-53" value="" style="endArrow=classic;html=1;rounded=0;dashed=1;exitX=1;exitY=0.75;exitDx=0;exitDy=0;entryX=1;entryY=0.25;entryDx=0;entryDy=0;" edge="1" parent="1" source="w4QK7ncXABPOGDVdGbdG-12" target="w4QK7ncXABPOGDVdGbdG-19">
          <mxGeometry width="50" height="50" relative="1" as="geometry">
            <mxPoint x="515" y="190" as="sourcePoint" />
            <mxPoint x="515" y="210" as="targetPoint" />
            <Array as="points">
              <mxPoint x="590" y="170" />
              <mxPoint x="590" y="220" />
              <mxPoint x="590" y="270" />
            </Array>
          </mxGeometry>
        </mxCell>
        <mxCell id="w4QK7ncXABPOGDVdGbdG-54" value="" style="endArrow=classic;html=1;rounded=0;dashed=1;exitX=1;exitY=0.75;exitDx=0;exitDy=0;entryX=1;entryY=0.25;entryDx=0;entryDy=0;" edge="1" parent="1" source="w4QK7ncXABPOGDVdGbdG-12" target="w4QK7ncXABPOGDVdGbdG-13">
          <mxGeometry width="50" height="50" relative="1" as="geometry">
            <mxPoint x="580" y="180" as="sourcePoint" />
            <mxPoint x="580" y="280" as="targetPoint" />
            <Array as="points">
              <mxPoint x="600" y="170" />
              <mxPoint x="600" y="230" />
              <mxPoint x="600" y="330" />
            </Array>
          </mxGeometry>
        </mxCell>
        <mxCell id="w4QK7ncXABPOGDVdGbdG-55" value="User Mgmt" style="rounded=0;whiteSpace=wrap;html=1;" vertex="1" parent="1">
          <mxGeometry x="655" y="85" width="130" height="25" as="geometry" />
        </mxCell>
        <mxCell id="w4QK7ncXABPOGDVdGbdG-56" value="File Storage?" style="rounded=0;whiteSpace=wrap;html=1;" vertex="1" parent="1">
          <mxGeometry x="655" y="147.5" width="130" height="25" as="geometry" />
        </mxCell>
        <mxCell id="w4QK7ncXABPOGDVdGbdG-57" value="Course Storage" style="rounded=0;whiteSpace=wrap;html=1;" vertex="1" parent="1">
          <mxGeometry x="655" y="207.5" width="130" height="25" as="geometry" />
        </mxCell>
        <mxCell id="w4QK7ncXABPOGDVdGbdG-58" value="Database" style="text;html=1;align=center;verticalAlign=middle;whiteSpace=wrap;rounded=0;" vertex="1" parent="1">
          <mxGeometry x="690" y="50" width="60" height="30" as="geometry" />
        </mxCell>
        <mxCell id="w4QK7ncXABPOGDVdGbdG-59" value="Learning Storage" style="rounded=0;whiteSpace=wrap;html=1;" vertex="1" parent="1">
          <mxGeometry x="655" y="327.5" width="130" height="25" as="geometry" />
        </mxCell>
        <mxCell id="w4QK7ncXABPOGDVdGbdG-60" style="edgeStyle=orthogonalEdgeStyle;rounded=0;orthogonalLoop=1;jettySize=auto;html=1;exitX=1;exitY=0.5;exitDx=0;exitDy=0;entryX=0;entryY=0.75;entryDx=0;entryDy=0;startArrow=classic;startFill=1;" edge="1" parent="1" source="w4QK7ncXABPOGDVdGbdG-19" target="w4QK7ncXABPOGDVdGbdG-15">
          <mxGeometry relative="1" as="geometry">
            <mxPoint x="571.88" y="299.26" as="sourcePoint" />
            <mxPoint x="651.88" y="299.26" as="targetPoint" />
          </mxGeometry>
        </mxCell>
        <mxCell id="w4QK7ncXABPOGDVdGbdG-61" value="Summary Storage" style="rounded=0;whiteSpace=wrap;html=1;" vertex="1" parent="1">
          <mxGeometry x="655" y="267.5" width="130" height="25" as="geometry" />
        </mxCell>
        <mxCell id="w4QK7ncXABPOGDVdGbdG-62" value="" style="endArrow=classic;dashed=1;html=1;strokeWidth=2;rounded=0;endFill=1;" edge="1" parent="1">
          <mxGeometry width="50" height="50" relative="1" as="geometry">
            <mxPoint x="445" y="540" as="sourcePoint" />
            <mxPoint x="585" y="540" as="targetPoint" />
          </mxGeometry>
        </mxCell>
        <mxCell id="w4QK7ncXABPOGDVdGbdG-63" value="Workflow" style="text;html=1;align=center;verticalAlign=middle;whiteSpace=wrap;rounded=0;" vertex="1" parent="1">
          <mxGeometry x="480" y="516" width="60" height="30" as="geometry" />
        </mxCell>
        <mxCell id="w4QK7ncXABPOGDVdGbdG-66" value="Authentication Service&lt;br&gt;---&lt;br&gt;Controller (Endpoint Mgmt)&lt;br&gt;Service (Auth Logic)&lt;br&gt;(DB) Token Storage&lt;br&gt;(DB) User Info" style="rounded=0;whiteSpace=wrap;html=1;fillColor=#d5e8d4;strokeColor=#82b366;" vertex="1" parent="1">
          <mxGeometry x="100" y="600" width="180" height="100" as="geometry" />
        </mxCell>
        <mxCell id="w4QK7ncXABPOGDVdGbdG-67" value="Upload Files Service&lt;br&gt;---&lt;br&gt;Controller (Upload Endpoint)&lt;br&gt;Service (Process Files &amp;amp; Storage Mgmt)&lt;br&gt;(DB) File Storage" style="rounded=0;whiteSpace=wrap;html=1;fillColor=#d5e8d4;strokeColor=#82b366;" vertex="1" parent="1">
          <mxGeometry x="100" y="720" width="220" height="100" as="geometry" />
        </mxCell>
        <mxCell id="w4QK7ncXABPOGDVdGbdG-68" value="Course Mgmt Service&lt;br&gt;---&lt;br&gt;Controller (CRUD Endpoint)&lt;br&gt;Service (Manage Courses)&lt;br&gt;(DB) Course Storage" style="rounded=0;whiteSpace=wrap;html=1;fillColor=#d5e8d4;strokeColor=#82b366;" vertex="1" parent="1">
          <mxGeometry x="100" y="840" width="180" height="100" as="geometry" />
        </mxCell>
        <mxCell id="w4QK7ncXABPOGDVdGbdG-70" value="GenAI Service&lt;br&gt;---&lt;br&gt;Preprocessing Material&lt;br&gt;Fetching Existing Material&lt;br&gt;LLM Connector&lt;br&gt;Categorize Part&lt;br&gt;Summarize Part&lt;br&gt;Response Processing" style="rounded=0;whiteSpace=wrap;html=1;fillColor=#fff2cc;strokeColor=#d6b656;gradientColor=light-dark(#dae8fc, #ededed);gradientDirection=east;" vertex="1" parent="1">
          <mxGeometry x="100" y="960" width="190" height="120" as="geometry" />
        </mxCell>
        <mxCell id="w4QK7ncXABPOGDVdGbdG-72" value="(Study Service)&lt;br&gt;---&lt;br&gt;Controller (Endpoint)&lt;br&gt;Service (Prepare Summary/Material)&lt;br&gt;Question Generator&lt;br&gt;Flashcard Creator&lt;br&gt;(DB) Flashcard Storage" style="rounded=0;whiteSpace=wrap;html=1;fillColor=#d5e8d4;strokeColor=#82b366;gradientColor=light-dark(#fff2cc, #ededed);gradientDirection=east;" vertex="1" parent="1">
          <mxGeometry x="100" y="1100" width="205" height="120" as="geometry" />
        </mxCell>
        <mxCell id="w4QK7ncXABPOGDVdGbdG-73" value="" style="rounded=0;whiteSpace=wrap;html=1;" vertex="1" parent="1">
          <mxGeometry x="400" y="600" width="40" height="620" as="geometry" />
        </mxCell>
        <mxCell id="w4QK7ncXABPOGDVdGbdG-74" value="Database" style="text;html=1;align=center;verticalAlign=middle;whiteSpace=wrap;rounded=0;" vertex="1" parent="1">
          <mxGeometry x="390" y="570" width="60" height="30" as="geometry" />
        </mxCell>
        <mxCell id="w4QK7ncXABPOGDVdGbdG-75" value="" style="shape=cylinder3;whiteSpace=wrap;html=1;boundedLbl=1;backgroundOutline=1;size=15;" vertex="1" parent="1">
          <mxGeometry x="388" y="1230" width="60" height="80" as="geometry" />
        </mxCell>
        <mxCell id="w4QK7ncXABPOGDVdGbdG-76" value="" style="shape=image;verticalLabelPosition=bottom;labelBackgroundColor=default;verticalAlign=top;aspect=fixed;imageAspect=0;image=https://www.embarc.de/img/architektur-portraets/02/spring-boot-logo.png;" vertex="1" parent="1">
          <mxGeometry x="139.99999999999997" y="1250.37" width="43.76" height="39.26" as="geometry" />
        </mxCell>
        <mxCell id="w4QK7ncXABPOGDVdGbdG-77" value="" style="shape=image;verticalLabelPosition=bottom;labelBackgroundColor=default;verticalAlign=top;aspect=fixed;imageAspect=0;image=https://149860134.v2.pressablecdn.com/wp-content/uploads/pythoned.png;" vertex="1" parent="1">
          <mxGeometry x="205" y="1245" width="50" height="50" as="geometry" />
        </mxCell>
      </root>
    </mxGraphModel>
  </diagram>
</mxfile>
